<?xml version="1.0" standalone="no"?>
<!DOCTYPE svg PUBLIC "-//W3C//DTD SVG 20010904//EN"
 "http://www.w3.org/TR/2001/REC-SVG-20010904/DTD/svg10.dtd">
<svg version="1.0" xmlns="http://www.w3.org/2000/svg"
 width="800.000000pt" height="800.000000pt" viewBox="0 0 800.000000 800.000000"
 preserveAspectRatio="xMidYMid meet">
<metadata>
Created by potrace 1.14, written by Peter Selinger 2001-2017
</metadata>
<g transform="translate(0.000000,800.000000) scale(0.100000,-0.100000)"
fill="#000000" stroke="none">
<path d="M727 7394 c-1 -1 -20 -4 -42 -6 -92 -11 -201 -93 -245 -185 l-23 -48
0 -3162 c1 -3529 -5 -3229 71 -3310 43 -45 80 -67 127 -77 17 -3 359 -8 760
-11 402 -3 957 -8 1235 -10 278 -3 777 -7 1110 -10 333 -2 936 -7 1340 -11
404 -3 1065 -7 1469 -8 662 -2 739 0 783 15 56 19 110 66 141 124 l22 40 -1
995 c-2 1594 -14 4083 -23 4788 l-1 83 -69 -7 c-64 -6 -68 -5 -74 15 -3 13 0
24 6 26 22 7 162 16 331 20 93 3 170 6 172 8 2 1 5 20 7 40 7 66 -3 70 -182
63 -158 -7 -240 -12 -298 -20 -27 -4 -33 -1 -33 14 0 14 10 20 43 25 23 3 54
8 70 11 l27 6 0 169 c0 162 -1 172 -26 220 -36 72 -97 134 -163 167 l-56 28
-2175 3 c-1196 2 -2653 4 -3238 5 -584 1 -1064 1 -1065 0z"/>
</g>
</svg>
